<?xml version="1.0" encoding="UTF-8" standalone="no"?>
<svg
   version="1.0"
   width="250"
   height="250"
   viewBox="0 0 187.5 187.5"
   preserveAspectRatio="xMidYMid"
   id="svg1"
   sodipodi:docname="neonrougee.svg"
   inkscape:version="1.4.2 (f4327f4, 2025-05-13)"
   xmlns:inkscape="http://www.inkscape.org/namespaces/inkscape"
   xmlns:sodipodi="http://sodipodi.sourceforge.net/DTD/sodipodi-0.dtd"
   xmlns="http://www.w3.org/2000/svg"
   xmlns:svg="http://www.w3.org/2000/svg">
  <defs
     id="defs1" />
  <sodipodi:namedview
     id="namedview1"
     pagecolor="#ffffff"
     bordercolor="#000000"
     borderopacity="0.25"
     inkscape:showpageshadow="2"
     inkscape:pageopacity="0.0"
     inkscape:pagecheckerboard="0"
     inkscape:deskcolor="#d1d1d1"
     inkscape:document-units="pt"
     inkscape:zoom="1.4151316"
     inkscape:cx="-51.585308"
     inkscape:cy="149.45606"
     inkscape:window-width="3440"
     inkscape:window-height="1351"
     inkscape:window-x="-9"
     inkscape:window-y="-9"
     inkscape:window-maximized="1"
     inkscape:current-layer="g1" />
  <metadata
     id="metadata1">
Created by potrace 1.15, written by Peter Selinger 2001-2017
</metadata>
  <g
     transform="matrix(0.01519095,0,0,0.0153674,33.627029,69.245368)"
     fill="#000000"
     stroke="none"
     id="g1"
     style="fill:#ff3a37;fill-opacity:1;stroke:#000000;stroke-opacity:1">
    <path
       d="m 1388.6035,376.38062 c 38.684,-528.68058 167.6305,-1015.284 392.9475,-1481.52732 173.7385,-359.6929 385.4822,-661.6992 645.4112,-921.6282 389.5541,-389.5541 846.2962,-629.8018 1340.3649,-704.4551 118.7665,-18.3239 367.1582,-21.7173 478.4594,-7.4653 265.3583,35.2906 525.2873,127.5892 770.9643,274.181 778.4297,464.2074 1326.7916,1376.3342 1478.134,2455.4127526 61.7586,439.0967674 52.2573,899.9108374 -26.468,1336.9716474 -138.4477,762.1417 -479.1379,1457.0954 -1005.1039,2046.1773 -79.4039,88.9052 -269.4303,277.5743 -355.6209,353.5849 -65.1519,57.0079 -212.4224,176.4531 -276.8956,223.281 -25.1107,18.324 -43.4346,35.2907 -40.72,38.0053 3.3934,2.7147 40.72,20.36 83.4759,40.0413 152.0212,67.8666 350.1916,182.5611 498.8194,287.7543 449.9554,318.2943 813.7202,762.8203 1037.0012,1267.7477 52.2573,118.0878 126.9105,316.2584 126.9105,336.6181 0,25.7893 21.7173,32.5759 -437.7393,-130.9824 -255.1784,-90.9412 -823.2216,-292.5049 -926.3788,-329.1529 -61.7586,-21.7173 -293.8623,-104.5145 -515.786,-183.2398 -221.9237,-79.4038 -426.8808,-152.0211 -454.7061,-160.8437 l -50.8999,-17.6454 -159.4865,51.5786 c -208.3504,67.188 -705.1337,226.6744 -953.5254,306.757 -266.7157,86.1905 -920.2708,296.5769 -1233.1357,397.0196 l -255.1784,82.1183 -70.5812,-2.036 -71.2599,-2.036 112.6585,-156.7717 c 173.7384,-241.605 293.1836,-395.6621 454.7061,-586.3672 329.8315,-390.2328 753.319,-804.8976 1135.4078,-1113.0119 74.6533,-59.0439 89.5839,-74.6532 73.9746,-74.6532 -3.3933,0 -48.8639,-30.54 -101.1212,-67.8666 C 2251.8664,3343.5075 1671.6072,2464.6353 1463.9354,1480.5699 1390.6395,1133.093 1362.8142,731.32283 1388.6035,376.38062 Z"
       id="path1"
       style="fill:#e41102;fill-opacity:1;stroke:#beede5;stroke-width:0.678666;stroke-opacity:1" />
  </g>
</svg>
